<?xml version="1.0" encoding="UTF-8"?>
<svg width="179px" height="36px" viewBox="0 0 179 36" version="1.1" xmlns="http://www.w3.org/2000/svg" xmlns:xlink="http://www.w3.org/1999/xlink">
    <!-- Generator: Sketch 46.2 (44496) - http://www.bohemiancoding.com/sketch -->
    <title>Page 1</title>
    <desc>Created with Sketch.</desc>
    <defs>
        <polygon id="path-1" points="2.69544707e-21 0.113565556 2.69544707e-21 33.6333044 18.1985123 33.6333044 18.1985123 0.113565556"></polygon>
        <polygon id="path-3" points="0.145129222 34.8055556 17.0156803 34.8055556 17.0156803 0.134886444 0.145129222 0.134886444"></polygon>
        <polygon id="path-5" points="18.1395816 34.8055556 0.029356 34.8055556 0.029356 0.134886444 18.1395816 0.134886444 18.1395816 34.8055556"></polygon>
        <polygon id="path-7" points="9.91918556 19.6835958 9.91918556 0.14141 0.186577667 0.14141 0.186577667 19.6835958"></polygon>
    </defs>
    <g id="Page-1" stroke="none" stroke-width="1" fill="none" fill-rule="evenodd">
        <g>
            <g id="Group-3" transform="translate(0.000000, 0.853034)">
                <mask id="mask-2" fill="white">
                    <use xlink:href="#path-1"></use>
                </mask>
                <g id="Clip-2"></g>
                <path d="M9.16557567,26.8585522 C9.84478122,26.8585522 10.339219,26.6525033 10.6486901,26.2388144 C10.9591557,25.8259211 11.114289,24.9695056 11.114289,23.6703633 C11.114289,22.1357367 10.9808346,21.04324 10.7157157,20.3938678 C10.4498012,19.7444956 9.99136233,19.4195111 9.34258678,19.4195111 L6.95174344,19.4195111 L6.95174344,26.8585522 L9.16557567,26.8585522 Z M8.98856456,13.8846322 C9.66697456,13.8846322 10.1325734,13.6191156 10.3835712,13.0874856 C10.6339723,12.5560544 10.7594712,11.5377433 10.7594712,10.0323533 C10.7594712,8.70357667 10.6051334,7.82607889 10.2946679,7.39747333 C9.98519678,6.97006111 9.48996344,6.75526111 8.81155344,6.75526111 L6.95174344,6.75526111 L6.95174344,13.8846322 L8.98856456,13.8846322 Z M-1.98888889e-05,33.6333044 L-1.98888889e-05,0.113565556 L9.96252344,0.113565556 C11.4683112,0.113565556 12.7151457,0.283814444 13.7046179,0.622721111 C14.6926979,0.962224444 15.4904412,1.49365556 16.0954612,2.21701444 C16.6998846,2.94057222 17.128689,3.87057667 17.3798857,5.00623222 C17.6300879,6.14347889 17.7555868,7.52337 17.7555868,9.14650222 C17.7555868,10.3575367 17.7181957,11.3458156 17.6450046,12.1131289 C17.570819,12.8814367 17.438359,13.5158922 17.2464312,14.0176889 C17.0547023,14.5196844 16.8106657,14.9327767 16.5159123,15.2573633 C16.2203634,15.5827456 15.8522201,15.8924156 15.4092946,16.1873678 L15.4092946,16.4972367 C15.8522201,16.7627533 16.2428379,17.0137511 16.5829379,17.2496333 C16.9212479,17.4863111 17.2167968,17.8630067 17.4679934,18.3787256 C17.7181957,18.8958367 17.9031623,19.6339133 18.0215012,20.5931544 C18.1392434,21.5525944 18.1985123,22.8889289 18.1985123,24.6003678 C18.1985123,26.2244944 18.0801734,27.6043856 17.8444901,28.7408367 C17.6076134,29.8772878 17.2028746,30.8072922 16.6264946,31.5298556 C16.051109,32.2538111 15.276039,32.7850433 14.3020801,33.1243478 C13.3281212,33.4638511 12.0882479,33.6333044 10.5824601,33.6333044 L-1.98888889e-05,33.6333044 Z" id="Fill-1" fill="#1D1D1B" mask="url(#mask-2)"></path>
            </g>
            <path d="M30.4646464,7.96283489 L29.9773687,7.96283489 L28.8699553,19.9625971 L31.6156164,19.9625971 L30.4646464,7.96283489 Z M32.5014676,34.4864582 L31.9250876,26.7373493 L28.5604842,26.7373493 L28.0286553,34.4864582 L21.0323409,34.4864582 L24.619302,0.966520444 L36.3091953,0.966520444 L39.6745942,34.4864582 L32.5014676,34.4864582 Z" id="Fill-4" fill="#1D1D1B"></path>
            <g id="Group-8" transform="translate(42.363333, 0.256368)">
                <mask id="mask-4" fill="white">
                    <use xlink:href="#path-3"></use>
                </mask>
                <g id="Clip-7"></g>
                <path d="M10.4179392,11.1161387 C10.4467781,10.8802564 10.4622914,10.6809698 10.4622914,10.5184776 L10.4622914,9.654902 C10.4622914,8.622072 10.335997,7.90567422 10.0857948,7.50729978 C9.83459811,7.10892533 9.28109033,6.90963867 8.42566922,6.90963867 C7.568657,6.90963867 7.022707,7.10892533 6.78722256,7.50729978 C6.550147,7.90567422 6.43320033,8.622072 6.43320033,9.654902 C6.43320033,10.6292587 6.55790367,11.3154253 6.80910033,11.7137998 C7.05950144,12.1123731 7.46563256,12.474152 8.02709589,12.7985398 C8.67587144,13.1825942 9.288847,13.5073798 9.86423256,13.7728964 C10.4406126,14.0384131 10.9716459,14.282052 11.4589237,14.5034153 C11.9456048,14.7249776 12.4102092,14.9393798 12.8531348,15.1456276 C13.2960603,15.3522731 13.7389859,15.6034698 14.1819114,15.8982231 C14.6536759,16.2526431 15.074127,16.628742 15.4436626,17.0273153 C15.8124026,17.4256898 16.1079514,17.9428009 16.3295137,18.5770576 C16.550877,19.2123087 16.7201314,19.993942 16.8386692,20.9239464 C16.9564114,21.853752 17.0156803,23.0128764 17.0156803,24.4001264 C17.0156803,26.4077109 16.8752648,28.0751953 16.5954281,29.4035742 C16.3138014,30.7317542 15.842037,31.7948153 15.1785437,32.5917631 C14.5140559,33.3887109 13.613487,33.9575331 12.4774337,34.2962409 C11.3403859,34.6353464 9.93125811,34.8055953 8.24865811,34.8055953 C5.47336256,34.8055953 3.43654144,34.2811253 2.13739922,33.2339753 C0.838257,32.1862287 0.189481444,30.3486942 0.189481444,27.7207753 C0.189481444,26.8651553 0.211359222,26.0017787 0.255711444,25.1308442 C0.300262556,24.2601087 0.395331444,23.5588264 0.543503667,23.0273953 L6.344297,23.0273953 C6.28502811,23.2044064 6.25539367,23.3969309 6.25539367,23.6027809 L6.25539367,24.2672687 C6.25539367,25.5664109 6.38884811,26.4592231 6.653967,26.9461031 C6.91988144,27.433182 7.495267,27.6768209 8.38111811,27.6768209 C9.26696922,27.6768209 9.84951478,27.4628164 10.130147,27.0346087 C10.4101826,26.6069976 10.5511948,25.6841531 10.5511948,24.2672687 C10.5511948,23.4114498 10.4179392,22.7618787 10.1520248,22.3189531 C9.88690589,21.8760276 9.458897,21.4486153 8.86859478,21.0345287 C8.33676589,20.6805064 7.76814256,20.3561187 7.16312256,20.0605698 C6.55790367,19.7658164 5.95288367,19.4847864 5.34786367,19.2192698 C4.74264478,18.9537531 4.15930367,18.6655631 3.59863589,18.3556942 C3.03796811,18.0456264 2.53597256,17.6846431 2.09364367,17.2709542 C1.178357,16.4740064 0.624650333,15.3823053 0.432722556,13.9942598 C0.240993667,12.6070098 0.145129222,10.8060709 0.145129222,8.59203978 C0.145129222,7.02777867 0.270628111,5.70715644 0.521625889,4.62917867 C0.772027,3.55179756 1.20799144,2.68086311 1.82792811,2.01637533 C2.44766589,1.35248422 3.28916478,0.872963111 4.352027,0.577414222 C5.41409367,0.282660889 6.77170922,0.134886444 8.42566922,0.134886444 C9.93125811,0.134886444 11.1930092,0.253026444 12.2115192,0.488908667 C13.2298303,0.725586444 14.0633737,1.130922 14.7129448,1.70650644 C15.3625159,2.28228978 15.8273192,3.042642 16.1079514,3.98696644 C16.387987,4.93208644 16.5284026,6.11269089 16.5284026,7.52957533 C16.5284026,8.44466311 16.5065248,9.16782311 16.4619737,9.69925422 C16.4176214,10.2302876 16.321757,10.7028476 16.1743803,11.1161387 L10.4179392,11.1161387 Z" id="Fill-6" fill="#1D1D1B" mask="url(#mask-4)"></path>
            </g>
            <polygon id="Fill-9" fill="#1D1D1B" points="67.4825426 34.4864383 67.4825426 8.05132056 62.2127826 8.05132056 62.2127826 0.966699444 79.7032703 0.966699444 79.7032703 8.05132056 74.4343059 8.05132056 74.4343059 34.4864383"></polygon>
            <path d="M90.0651826,7.96283489 L89.5777059,7.96283489 L88.4704914,19.9625971 L91.2161526,19.9625971 L90.0651826,7.96283489 Z M92.1020037,34.4864582 L91.5256237,26.7373493 L88.1610203,26.7373493 L87.6291914,34.4864582 L80.632877,34.4864582 L84.2198381,0.966520444 L95.9097314,0.966520444 L99.2751303,34.4864582 L92.1020037,34.4864582 Z" id="Fill-11" fill="#1D1D1B"></path>
            <path d="M111.982579,15.1805326 C112.63215,15.1805326 113.089595,14.9080548 113.355509,14.3613092 C113.620827,13.8155581 113.754281,12.7604526 113.754281,11.1953959 C113.754281,9.86661922 113.599148,8.98116589 113.289478,8.53824033 C112.979211,8.09571256 112.484575,7.87434922 111.805369,7.87434922 L110.034661,7.87434922 L110.034661,15.1805326 L111.982579,15.1805326 Z M114.063752,34.4864781 C113.975645,34.2209614 113.893702,33.9327714 113.820511,33.6229026 C113.746525,33.3128348 113.665378,32.8410703 113.57727,32.2060181 C113.488367,31.5717614 113.369829,30.6938659 113.222253,29.5715359 C113.07428,28.4498026 112.897269,26.914977 112.69122,24.9664626 C112.602516,24.1991492 112.514408,23.5792126 112.425505,23.1066526 C112.337397,22.6344903 112.233577,22.2727114 112.115835,22.0215148 C111.997496,21.7713126 111.84992,21.6086214 111.67271,21.5346348 C111.495898,21.4612448 111.303373,21.4238537 111.097523,21.4238537 L110.034661,21.4238537 L110.034661,34.4864781 L103.082898,34.4864781 L103.082898,0.966540333 L113.222253,0.966540333 C114.72824,0.966540333 115.968113,1.13698811 116.942072,1.47589478 C117.916827,1.81539811 118.690902,2.34682922 119.266487,3.06998922 C119.842867,3.79374589 120.241042,4.72355144 120.462803,5.85940589 C120.684167,6.99625478 120.794948,8.37654367 120.794948,9.99967589 C120.794948,11.7417437 120.734883,13.1071159 120.617141,14.0953948 C120.4992,15.0850659 120.314631,15.8597381 120.06423,16.4204059 C119.813232,16.9814714 119.510722,17.4021214 119.156302,17.682157 C118.801882,17.963187 118.388591,18.2356648 117.916827,18.5011814 L117.916827,18.7670959 C118.093838,18.9152681 118.277611,19.0771637 118.469539,19.2541748 C118.661467,19.4311859 118.830721,19.7267348 118.978893,20.1400259 C119.215173,20.6710592 119.458415,21.4757637 119.709412,22.5529459 C119.959615,23.6311226 120.20385,25.1434737 120.439931,27.0917892 C120.617141,28.4498026 120.750397,29.5422992 120.838306,30.3684837 C120.927408,31.1952648 121.008555,31.8593548 121.08274,32.3611514 C121.155931,32.8633459 121.2152,33.2466048 121.259751,33.5121214 C121.304103,33.7780359 121.370333,34.0290337 121.458441,34.2651148 L121.458441,34.4864781 L114.063752,34.4864781 Z" id="Fill-13" fill="#1D1D1B"></path>
            <path d="M134.476256,27.0918091 C135.036725,27.0918091 135.435298,27.032938 135.671578,26.9145991 C135.907858,26.7970558 136.084869,26.5900124 136.203407,26.2946624 C136.26188,26.0886136 136.32095,25.8447758 136.380418,25.5641436 C136.438892,25.2839091 136.483443,24.8336247 136.513077,24.213688 C136.541916,23.5937513 136.564589,22.7600091 136.579307,21.7116658 C136.594025,20.6645158 136.60198,19.2838291 136.60198,17.5717936 C136.60198,15.8595591 136.594025,14.4651491 136.579307,13.3871713 C136.564589,12.3097902 136.541916,11.4609324 136.513077,10.8409958 C136.483443,10.221258 136.438892,9.76361467 136.380418,9.46826467 C136.32095,9.17351133 136.26188,8.92251356 136.203407,8.71566911 C136.084869,8.47998578 135.907858,8.30257689 135.671578,8.18443689 C135.435298,8.06669467 135.036725,8.00742578 134.476256,8.00742578 L132.262424,8.00742578 L132.262424,27.0918091 L134.476256,27.0918091 Z M125.31066,34.486498 L125.31066,0.966759111 L134.653267,0.966759111 C136.778992,0.966759111 138.401726,1.16584689 139.524653,1.56422133 C140.645988,1.96279467 141.501409,2.64916022 142.092507,3.62311911 C142.387062,4.12591022 142.630502,4.66410356 142.823026,5.23948911 C143.014954,5.81527244 143.177048,6.60525911 143.310503,7.60845467 C143.442963,8.61244578 143.53823,9.91119022 143.598096,11.5054836 C143.656569,13.0991802 143.686204,15.1662324 143.686204,17.7044524 C143.686204,20.2436669 143.656569,22.3170836 143.598096,23.9258958 C143.53823,25.5349069 143.442963,26.8412091 143.310503,27.8444047 C143.177048,28.8481969 143.014954,29.6455424 142.823026,30.2354469 C142.630502,30.8263458 142.387062,31.3577769 142.092507,31.8295413 C141.796958,32.3319347 141.442737,32.7525847 141.029645,33.0918891 C140.616354,33.4313924 140.114159,33.7048647 139.524653,33.9111124 C138.933555,34.1175591 138.240228,34.2649358 137.44328,34.3536402 C136.646333,34.4421458 135.71593,34.486498 134.653267,34.486498 L125.31066,34.486498 Z" id="Fill-15" fill="#1D1D1B"></path>
            <g id="Group-19" transform="translate(147.376667, 0.256368)">
                <mask id="mask-6" fill="white">
                    <use xlink:href="#path-5"></use>
                </mask>
                <g id="Clip-18"></g>
                <path d="M10.833796,26.5254531 C10.8922693,26.3192053 10.9515382,26.0536887 11.011006,25.7285053 C11.0694793,25.4037198 11.1136327,24.9168398 11.1436649,24.2672687 C11.1723049,23.6180953 11.1947793,22.7396031 11.2098949,21.6327864 C11.2246127,20.5253731 11.2321704,19.0718931 11.2321704,17.2709542 C11.2321704,15.4111442 11.2246127,13.9210687 11.2098949,12.7985398 C11.1947793,11.6772042 11.1723049,10.7839942 11.1436649,10.1199042 C11.1136327,9.45561533 11.0694793,8.96157533 11.011006,8.636392 C10.9515382,8.31200422 10.8922693,8.04608978 10.833796,7.83944422 C10.7152582,7.54469089 10.538446,7.33028867 10.3019671,7.197232 C10.065886,7.06437422 9.66731267,6.99814422 9.10664489,6.99814422 C8.54597711,6.99814422 8.13964711,7.06437422 7.889246,7.197232 C7.63765156,7.33028867 7.46819822,7.54469089 7.38009044,7.83944422 C7.29118711,8.04608978 7.22495711,8.31200422 7.180406,8.636392 C7.13605378,8.96157533 7.09170156,9.45561533 7.047946,10.1199042 C7.00339489,10.7839942 6.97376044,11.6772042 6.95924156,12.7985398 C6.944126,13.9210687 6.93716489,15.4111442 6.93716489,17.2709542 C6.93716489,19.0718931 6.944126,20.5253731 6.95924156,21.6327864 C6.97376044,22.7396031 7.00339489,23.6180953 7.047946,24.2672687 C7.09170156,24.9168398 7.13605378,25.4037198 7.180406,25.7285053 C7.22495711,26.0536887 7.29118711,26.3192053 7.38009044,26.5254531 C7.46819822,26.8208031 7.63765156,27.0274487 7.889246,27.1453898 C8.13964711,27.2635298 8.54597711,27.3224009 9.10664489,27.3224009 C9.66731267,27.3224009 10.065886,27.2635298 10.3019671,27.1453898 C10.538446,27.0274487 10.7152582,26.8208031 10.833796,26.5254531 M16.5013338,32.060332 C16.2057849,32.5917631 15.8597182,33.0275287 15.4611449,33.3664353 C15.0627704,33.7063364 14.5673382,33.986372 13.9772349,34.2079342 C13.3867338,34.4292976 12.6938049,34.5846298 11.8968571,34.6729364 C11.0989149,34.761442 10.1695071,34.8055953 9.10664489,34.8055953 C6.951286,34.8055953 5.32079489,34.6063087 4.21338156,34.2079342 C3.10696267,33.8093609 2.25770711,33.0937587 1.66740489,32.060332 C1.37205489,31.5589331 1.12085822,31.0050276 0.915008222,30.3996098 C0.708362667,29.7949876 0.538312667,28.9757642 0.405653778,27.9423376 C0.273193778,26.9095076 0.176533778,25.5588531 0.118060444,23.8909709 C0.0587915556,22.2232876 0.029356,20.0758842 0.029356,17.4479653 C0.029356,14.820842 0.0587915556,12.6811953 0.118060444,11.0276331 C0.176533778,9.37446867 0.273193778,8.03176978 0.405653778,6.99814422 C0.538312667,5.96531422 0.708362667,5.15344978 0.915008222,4.56274978 C1.12085822,3.97244756 1.37205489,3.411382 1.66740489,2.87995089 C1.96235711,2.37835311 2.31021378,1.95014533 2.70838933,1.59572533 C3.10696267,1.24170311 3.600406,0.953910889 4.19170267,0.732547556 C4.781806,0.510985333 5.48308822,0.356249778 6.29475378,0.267346444 C7.10661822,0.178840889 8.04398156,0.134886444 9.10664489,0.134886444 C11.2321704,0.134886444 12.8479438,0.341532 13.9553571,0.754823111 C15.0627704,1.168512 15.910236,1.87695422 16.5013338,2.87995089 C16.796286,3.411382 17.0470849,3.97244756 17.2537304,4.56274978 C17.460376,5.15344978 17.6306249,5.96531422 17.7638804,6.99814422 C17.8963404,8.03176978 17.9914093,9.37446867 18.0514738,11.0276331 C18.1099471,12.6811953 18.1395816,14.820842 18.1395816,17.4479653 C18.1395816,20.0758842 18.1099471,22.2232876 18.0514738,23.8909709 C17.9914093,25.5588531 17.8963404,26.9095076 17.7638804,27.9423376 C17.6306249,28.9757642 17.460376,29.7949876 17.2537304,30.3996098 C17.0470849,31.0050276 16.796286,31.5589331 16.5013338,32.060332" id="Fill-17" fill="#1D1D1B" mask="url(#mask-6)"></path>
            </g>
            <g id="Group-22" transform="translate(169.055556, 0.057479)">
                <mask id="mask-8" fill="white">
                    <use xlink:href="#path-7"></use>
                </mask>
                <g id="Clip-21"></g>
                <path d="M0.238089889,19.6835958 L0.238089889,15.3468236 L3.07782544,15.3468236 L3.07782544,6.82761689 L0.186577667,6.82761689 L0.186577667,3.23946244 L1.94177211,3.23946244 C2.28584989,3.23946244 2.57423878,3.222358 2.80673989,3.18755244 C3.03904211,3.15334356 3.22380989,3.07617467 3.36183878,2.95525022 C3.49907211,2.83512133 3.60289211,2.658508 3.67150878,2.42620578 C3.73992656,2.19370467 3.78368211,1.88860911 3.80098544,1.50992467 L3.87815433,0.141370222 L7.23440433,0.141370222 L7.23440433,15.3468236 L9.91920544,15.3468236 L9.91920544,19.6835958 L0.238089889,19.6835958 Z" id="Fill-20" fill="#1D1D1B" mask="url(#mask-8)"></path>
            </g>
        </g>
    </g>
</svg>